<svg xmlns="http://www.w3.org/2000/svg" width="12" height="12" viewBox="0 0 12 12" fill="none">
  <path d="M6.0285 5.24386H6.40051V8.29786L6.5625 8.41186L7.07251 8.44786V8.70586H4.9425V8.44786L5.44051 8.41186L5.60251 8.29786V5.71786H4.9425V5.49586L6.0285 5.24386Z" fill="#696D8B"/>
  <path d="M6.00612 3.3019C6.16212 3.3019 6.30011 3.3559 6.40811 3.4699C6.51611 3.5839 6.57012 3.7159 6.57012 3.8659C6.57012 4.0159 6.51611 4.1539 6.40811 4.2619C6.30011 4.3699 6.16812 4.4239 6.00612 4.4239C5.84412 4.4239 5.71811 4.3699 5.61011 4.2619C5.50211 4.1539 5.44812 4.0219 5.44812 3.8659C5.44812 3.7099 5.50211 3.5719 5.61011 3.4639C5.71811 3.3559 5.85012 3.3019 6.00612 3.3019Z" fill="#696D8B"/>
  <path d="M6 12C2.694 12 0 9.306 0 6C0 2.694 2.694 0 6 0C9.306 0 12 2.694 12 6C12 9.306 9.306 12 6 12ZM6 0.786001C3.126 0.786001 0.785999 3.126 0.785999 6C0.785999 8.874 3.126 11.214 6 11.214C8.874 11.214 11.214 8.874 11.214 6C11.214 3.126 8.874 0.786001 6 0.786001Z" fill="#696D8B"/>
</svg>